Format : AVI
Format/Info : Audio Video Interleave
File size : 1.12 GiB
Duration : 1h 55mn
Overall bit rate : 1 385 Kbps
Writing library : VirtualDub build 32839/release

Video
ID : 0
Format : MPEG-4 Visual
Format profile : Advanced Simple@L5
Format settings, BVOP : 2
Format settings, QPel : No
Format settings, GMC : No warppoints
Format settings, Matrix : Default (H.263)
Muxing mode : Packed bitstream
Codec ID : XVID
Codec ID/Hint : XviD
Duration : 1h 55mn
Bit rate : 1 248 Kbps
Width : 720 pixels
Height : 304 pixels
Display aspect ratio : 2.35:1
Frame rate : 25.000 fps
Color space : YUV
Chroma subsampling : 4:2:0
Bit depth : 8 bits
Scan type : Progressive
Compression mode : Lossy
Bits/(Pixel*Frame) : 0.228
Stream size : 1.01 GiB (90%)
Writing library : XviD 63

Audio
ID : 1
Format : MPEG Audio
Format version : Version 1
Format profile : Layer 3
Codec ID : 55
Codec ID/Hint : MP3
Duration : 1h 55mn
Bit rate mode : Constant
Bit rate : 128 Kbps
Channel(s) : 2 channels
Sampling rate : 44.1 KHz
Compression mode : Lossy
Stream size : 106 MiB (9%)
Alignment : Split accross interleaves
Interleave, duration : 40 ms (1.00 video frame)
Interleave, preload duration : 500 ms



 
http://www.imdb.com/title/tt1067583/







Users: 7.0/10 (7,322 votes) 137 reviews | Critics: 155 reviews Metascore: 52/100 (based on 35 reviews from Metacritic.com)

A veterinary student abandons his studies after his parents are killed and joins a traveling circus as their vet.
Director:
Francis Lawrence
Writers:
Richard LaGravenese (screenplay), Sara Gruen (novel)
Stars:
Robert Pattinson, Reese Witherspoon and Christoph Waltz
















Source Used


Video:Vodi Slonam DVD5 ........Thanks
Audio:IMAGiNE ........................Thanks



Slight sharpen /contrast brightness touch of saturation .Never used any super duper special filters i tried and tried but my frequency was all wrong...Never tried to upscale the mp3 to super de duper AC3 6 channels across to France neither...........Enjoy !


Greetz to IMAGiNE,Flawl3ss,DiLLoN,BDK,NOiR,TOXiCiNK,THC,Ez,Rx,Boobyblue,TaRiQ786,LKRG,CrEwSaDe